<!-- Generated by IcoMoon.io -->
<svg version="1.1" xmlns="http://www.w3.org/2000/svg" width="24" height="24" viewBox="0 0 24 24">
<path d="M18.58 10.311c0.293-0.292 0.768-0.292 1.061 0.001l2.589 2.602c0.292 0.294 0.291 0.768-0.003 1.061s-0.768 0.291-1.061-0.002l-1.33-1.337c-0.323 4.039-3.701 7.217-7.823 7.217-2.516-0-4.755-1.185-6.19-3.024-0.255-0.326-0.197-0.798 0.129-1.053s0.798-0.197 1.053 0.13c1.163 1.49 2.975 2.446 5.009 2.446 3.278 0 5.976-2.484 6.315-5.673l-1.304 1.298c-0.294 0.292-0.769 0.291-1.062-0.003s-0.29-0.768 0.003-1.061l2.615-2.603zM12.013 4.151c2.696 0 5.074 1.36 6.486 3.427 0.233 0.342 0.146 0.808-0.196 1.042s-0.808 0.146-1.042-0.196c-1.145-1.675-3.069-2.772-5.248-2.772-3.364 0-6.115 2.616-6.334 5.925l1.301-1.31c0.292-0.294 0.767-0.295 1.061-0.003s0.296 0.766 0.004 1.059l-2.6 2.622c-0.292 0.294-0.768 0.295-1.062 0.004l-2.606-2.586c-0.294-0.292-0.296-0.768-0.004-1.062s0.767-0.296 1.061-0.004l1.34 1.329c0.195-4.161 3.63-7.475 7.84-7.476z"></path>
</svg>
