<svg version="1.1" xmlns="http://www.w3.org/2000/svg" width="24" height="24" viewBox="0 0 24 24">
<path d="M13.963 2.804c1.040 0 1.952 0.7 2.222 1.706 0.006 0.022 0.011 0.045 0.015 0.067l0.298 1.461h3.36c0.615 0 1.115 0.5 1.115 1.115s-0.5 1.115-1.115 1.115h-0.748v8.889c0 0.027-0.001 0.055-0.003 0.082-0.163 2.229-2.019 3.956-4.256 3.956h-5.699c-2.236 0-4.094-1.727-4.257-3.958-0.002-0.027-0.002-0.054-0.002-0.080l-0.002-8.889h-0.75c-0.615 0-1.115-0.5-1.115-1.115s0.5-1.115 1.115-1.115h3.365l0.293-1.46 0.017-0.069c0.271-1.009 1.186-1.708 2.228-1.706h3.919zM7.121 17.103c0.091 1.053 0.972 1.865 2.031 1.865h5.699c1.060-0 1.941-0.812 2.031-1.865v-8.834h-9.76v8.834zM13.029 10.838c0.435-0.435 1.14-0.435 1.575 0s0.435 1.142 0 1.577l-1.030 1.028 1.030 1.030c0.435 0.435 0.435 1.14 0 1.575s-1.14 0.435-1.575 0l-1.030-1.030-1.028 1.030c-0.435 0.435-1.142 0.435-1.577 0s-0.434-1.14 0-1.575l1.028-1.030-1.028-1.028c-0.435-0.435-0.435-1.142 0-1.577s1.142-0.435 1.577 0l1.028 1.028 1.030-1.028zM10.041 5.034c-0.033 0-0.061 0.021-0.070 0.050l-0.191 0.954h4.443l-0.194-0.958c-0.010-0.027-0.035-0.047-0.065-0.047h-3.922z"></path>
</svg>
