<svg version="1.1" xmlns="http://www.w3.org/2000/svg" width="24" height="24" viewBox="0 0 24 24">
<path d="M19.158 20.296c0.283 0.001 0.514 0.232 0.514 0.516s-0.231 0.513-0.514 0.514h-8.61c-0.284 0-0.514-0.23-0.514-0.514s0.23-0.516 0.514-0.516h8.61zM20.496 3.085c0.111 0.003 0.22 0.042 0.308 0.112 0.117 0.094 0.189 0.235 0.194 0.385 0.048 1.451-0.195 5.378-3.854 8.056-0.13 0.095-0.299 0.124-0.454 0.077l-2.672-0.815-0.224 2.732c-0.018 0.217-0.172 0.398-0.382 0.454-3.391 0.893-6.076 0.578-7.441 0.288-0.565 1.366-1.273 3.248-1.867 6.214-0.056 0.278-0.326 0.459-0.604 0.404s-0.459-0.326-0.403-0.604c0.671-3.357 1.487-5.38 2.091-6.812 2.976-7.055 10.598-9.579 15.198-10.48l0.11-0.010zM19.967 4.233c-4.416 0.957-10.787 3.335-13.577 9.174 1.253 0.242 3.539 0.461 6.41-0.233l0.248-2.995 0.022-0.114c0.035-0.109 0.106-0.204 0.203-0.27 0.129-0.087 0.29-0.112 0.439-0.067l3.027 0.924c2.651-2.058 3.167-4.866 3.229-6.42z"></path>
</svg>
