<svg version="1.1" xmlns="http://www.w3.org/2000/svg" width="24" height="24" viewBox="0 0 24 24">
<path d="M11.529 4.967c3.551 0 6.429 2.879 6.429 6.43-0 1.379-0.436 2.655-1.175 3.701l1.743 1.739c0.502 0.502 0.503 1.316 0.002 1.818s-1.316 0.503-1.818 0.002l-1.798-1.795c-0.982 0.609-2.141 0.962-3.382 0.963-3.551-0-6.43-2.878-6.43-6.429s2.879-6.43 6.43-6.43zM11.529 7.538c-2.131 0-3.859 1.728-3.859 3.859s1.728 3.857 3.859 3.857c2.13-0 3.857-1.727 3.857-3.857s-1.726-3.858-3.857-3.859z"></path>
</svg>
