<svg width="24" height="24" viewBox="0 0 24 24" xmlns="http://www.w3.org/2000/svg">
<path d="M6.99121 9.50793C7.28411 9.21507 7.75985 9.21505 8.05273 9.50793C8.34526 9.80076 8.34526 10.2757 8.05273 10.5685L5.86035 12.7609C4.41317 14.252 4.43023 16.6296 5.90039 18.0997C7.37284 19.572 9.75547 19.5869 11.2461 18.1329L13.4316 15.9474C13.7246 15.6548 14.1994 15.6546 14.4922 15.9474C14.7849 16.2402 14.7848 16.715 14.4922 17.0079L12.293 19.2072C10.2145 21.234 6.89277 21.213 4.83984 19.1603C2.78678 17.1072 2.76565 13.7847 4.79297 11.7062L6.99121 9.50793ZM14.1377 8.80188C14.4305 8.50903 14.9053 8.50913 15.1982 8.80188C15.491 9.09478 15.4911 9.56958 15.1982 9.86243L9.8623 15.1984C9.56945 15.4911 9.09463 15.4911 8.80176 15.1984C8.50904 14.9055 8.509 14.4307 8.80176 14.1378L14.1377 8.80188ZM11.7061 4.79309C13.7846 2.76584 17.1071 2.78693 19.1602 4.83997C21.2129 6.89287 21.2338 10.2146 19.207 12.2931L17.0078 14.4923C16.7149 14.7849 16.2401 14.7851 15.9473 14.4923C15.6545 14.1995 15.6546 13.7247 15.9473 13.4318L18.1328 11.2462C19.5867 9.75558 19.5719 7.37294 18.0996 5.90051C16.6272 4.4281 14.2446 4.4134 12.7539 5.86731L10.5684 8.05286C10.2755 8.34542 9.80064 8.34542 9.50781 8.05286C9.21493 7.75996 9.21492 7.28422 9.50781 6.99133L11.7061 4.79309Z"/>
</svg>
