<svg version="1.1" xmlns="http://www.w3.org/2000/svg" width="24" height="24" viewBox="0 0 24 24">
<path d="M5.978 5.96c0.435-0.435 1.141-0.434 1.575 0.002s0.435 1.14 0 1.575c-1.142 1.141-1.846 2.715-1.847 4.455 0 1.746 0.71 3.325 1.86 4.467 0.436 0.434 0.438 1.139 0.005 1.575s-1.139 0.44-1.575 0.007c-1.554-1.543-2.519-3.684-2.52-6.049 0-2.355 0.958-4.49 2.501-6.032zM16.456 5.96c0.435-0.434 1.14-0.435 1.575 0 1.599 1.599 2.496 3.77 2.493 6.032l-0.012 0.44c-0.112 2.189-1.050 4.162-2.506 5.608-0.437 0.433-1.143 0.43-1.577-0.007s-0.43-1.142 0.007-1.575c1.149-1.141 1.86-2.72 1.86-4.467v-0.003c0.002-1.669-0.66-3.271-1.84-4.451-0.435-0.435-0.435-1.142 0-1.577zM12.001 9.027c1.674 0 3.030 1.358 3.030 3.032s-1.356 3.030-3.030 3.030c-1.674 0-3.032-1.356-3.032-3.030s1.358-3.032 3.032-3.032z"></path>
</svg>
