<svg version="1.1" xmlns="http://www.w3.org/2000/svg" width="24" height="24" viewBox="0 0 24 24">
<path d="M11.999 3.592c4.644 0 8.409 3.764 8.409 8.407s-3.765 8.409-8.409 8.409c-4.643-0.001-8.407-3.766-8.407-8.409s3.764-8.407 8.407-8.407zM10.292 13.029c0.084 1.52 0.346 2.851 0.713 3.829 0.225 0.6 0.469 1.015 0.686 1.261 0.106 0.119 0.19 0.18 0.243 0.209 0.025 0.014 0.043 0.019 0.052 0.022 0.007 0.002 0.011 0.002 0.013 0.002s0.007 0 0.015-0.002c0.009-0.003 0.026-0.009 0.050-0.022 0.053-0.029 0.137-0.090 0.243-0.209 0.218-0.246 0.461-0.661 0.686-1.261 0.367-0.978 0.629-2.309 0.713-3.829h-3.415zM15.768 13.029c-0.086 1.73-0.385 3.314-0.849 4.55-0.010 0.025-0.022 0.050-0.032 0.075 1.764-0.902 3.050-2.602 3.38-4.626h-2.499zM5.733 13.029c0.33 2.022 1.615 3.721 3.377 4.624-0.009-0.025-0.021-0.049-0.030-0.074-0.464-1.236-0.761-2.82-0.847-4.55h-2.499zM9.11 6.342c-1.763 0.903-3.049 2.605-3.378 4.629h2.501c0.086-1.731 0.383-3.315 0.847-4.552 0.010-0.026 0.020-0.052 0.030-0.077zM11.986 5.651c-0.009 0.002-0.027 0.008-0.052 0.022-0.053 0.029-0.137 0.090-0.243 0.209-0.218 0.246-0.462 0.661-0.686 1.261-0.366 0.978-0.629 2.308-0.713 3.829h3.415c-0.084-1.52-0.347-2.851-0.713-3.829-0.225-0.6-0.469-1.015-0.686-1.261-0.106-0.12-0.19-0.18-0.243-0.209-0.025-0.013-0.041-0.019-0.050-0.022s-0.013-0.003-0.015-0.003c-0.002 0-0.006 0.001-0.013 0.003zM14.919 6.419c0.464 1.237 0.763 2.821 0.849 4.552h2.499c-0.33-2.025-1.616-3.726-3.38-4.629 0.010 0.026 0.022 0.051 0.032 0.077z"></path>
</svg>
