<svg version="1.1" xmlns="http://www.w3.org/2000/svg" width="24" height="24" viewBox="0 0 24 24">
<path d="M14.333 3.485c2.125 0 3.686 1.849 3.686 3.921v9.817c-0 2.071-1.562 3.921-3.686 3.921h-5.143c-2.125 0-3.686-1.85-3.686-3.921v-9.817c0-2.071 1.562-3.921 3.686-3.921h5.143zM9.19 5.715c-0.715 0-1.456 0.664-1.456 1.691v9.817c0 1.027 0.741 1.691 1.456 1.691h5.143c0.715 0 1.456-0.664 1.457-1.691v-9.817c0-1.027-0.741-1.691-1.457-1.691h-5.143zM13.345 14.921c0.615 0 1.115 0.5 1.115 1.115s-0.5 1.113-1.115 1.113h-2.69c-0.615-0-1.115-0.498-1.115-1.113s0.5-1.115 1.115-1.115h2.69z"></path>
</svg>
