<svg version="1.1" xmlns="http://www.w3.org/2000/svg" width="24" height="24" viewBox="0 0 24 24">
<path d="M21.009 13.101c0.057 0 0.113 0.006 0.169 0.017 0.080 0.016 0.156 0.043 0.227 0.078 0.007 0.004 0.015 0.007 0.023 0.011 0.209 0.112 0.369 0.304 0.438 0.535 0.025 0.085 0.038 0.172 0.038 0.26v4.002c-0 0.497-0.403 0.899-0.899 0.899s-0.9-0.403-0.9-0.899v-1.829l-2.318 2.318c-1.448 1.447-3.379 2.301-5.414 2.401l-0.408 0.010c-3.366-0-6.394-2.049-7.645-5.175l-0.157-0.393c-0.185-0.461 0.040-0.985 0.501-1.17s0.986 0.040 1.171 0.501l0.156 0.392 0.001 0.001c0.977 2.442 3.342 4.044 5.973 4.044 1.706 0 3.343-0.678 4.55-1.885l2.317-2.317h-1.828c-0.497 0-0.9-0.404-0.9-0.9s0.403-0.9 0.9-0.9h4.007zM12.037 3.097c3.366 0 6.394 2.050 7.644 5.176l0.156 0.392c0.184 0.461-0.040 0.986-0.501 1.171s-0.985-0.040-1.17-0.501l-0.157-0.393c-0.977-2.442-3.342-4.044-5.973-4.044-1.706-0-3.343 0.677-4.55 1.884l-2.318 2.318h1.829c0.497 0 0.899 0.403 0.899 0.9s-0.403 0.899-0.899 0.899h-4.002c-0.049 0-0.096-0.005-0.143-0.013-0.011-0.002-0.023-0.004-0.034-0.006-0.045-0.009-0.089-0.022-0.131-0.037-0.013-0.005-0.026-0.009-0.038-0.014-0.010-0.004-0.019-0.009-0.028-0.014-0.095-0.043-0.185-0.103-0.263-0.181-0.034-0.034-0.064-0.071-0.091-0.108-0.041-0.057-0.076-0.119-0.103-0.184-0.027-0.064-0.045-0.131-0.056-0.198-0.008-0.047-0.014-0.095-0.014-0.144v-4.002c0-0.497 0.403-0.9 0.9-0.9s0.9 0.403 0.9 0.9v1.828l2.317-2.317c1.544-1.544 3.639-2.412 5.823-2.412z"></path>
</svg>
