<svg version="1.1" xmlns="http://www.w3.org/2000/svg" width="24" height="24" viewBox="0 0 24 24">
<path d="M19.157 19.913c0.497 0 0.9 0.402 0.9 0.899s-0.403 0.9-0.9 0.9h-8.609c-0.497 0-0.9-0.404-0.9-0.9s0.403-0.899 0.9-0.899h8.609zM20.408 2.703c0.227-0.019 0.455 0.049 0.636 0.192 0.206 0.164 0.33 0.411 0.339 0.675 0.049 1.499-0.198 5.59-4.011 8.38-0.229 0.167-0.524 0.216-0.795 0.134l-2.213-0.676-0.186 2.256c-0.032 0.38-0.299 0.699-0.668 0.796-3.22 0.849-5.823 0.631-7.306 0.356-0.537 1.325-1.176 3.122-1.722 5.849-0.097 0.487-0.572 0.804-1.060 0.706s-0.803-0.571-0.706-1.059c0.678-3.392 1.505-5.44 2.114-6.886 3.057-7.248 10.861-9.804 15.478-10.709l0.098-0.014zM19.544 4.725c-4.223 0.99-9.868 3.259-12.576 8.394 1.229 0.182 3.14 0.272 5.47-0.25l0.226-2.72 0.014-0.101c0.046-0.231 0.181-0.437 0.378-0.57 0.225-0.153 0.507-0.195 0.768-0.116l2.834 0.865c2.136-1.741 2.741-3.999 2.888-5.502z"></path>
</svg>
