<svg version="1.1" xmlns="http://www.w3.org/2000/svg" width="24" height="24" viewBox="0 0 24 24">
<path d="M11.39 4.353c1.232-1.232 3.231-1.232 4.463 0l3.85 3.849c0.591 0.591 0.922 1.394 0.922 2.23s-0.331 1.642-0.922 2.233c-0.69 0.69-1.621 0.992-2.523 0.909l-0.38 3.049c-0.13 1.041-0.905 1.888-1.93 2.111l-8.441 1.835c-0.677 0.147-1.375-0.002-1.934-0.388-0.138-0.054-0.267-0.135-0.378-0.246s-0.193-0.241-0.248-0.378c-0.386-0.558-0.532-1.256-0.385-1.932l1.835-8.439c0.223-1.026 1.071-1.8 2.113-1.93l3.047-0.382c-0.082-0.901 0.221-1.83 0.911-2.52zM7.709 9.466c-0.104 0.013-0.189 0.091-0.211 0.193l-1.478 6.797 2.181-2.181c-0.008-0.067-0.012-0.135-0.012-0.204-0-0.991 0.803-1.795 1.793-1.796l0.177 0.010c0.353 0.035 0.688 0.172 0.963 0.397l0.131 0.119 0.12 0.132c0.262 0.32 0.406 0.723 0.405 1.14-0.002 0.99-0.804 1.791-1.795 1.791-0.070 0-0.138-0.006-0.206-0.013l-2.185 2.185 6.804-1.478c0.102-0.023 0.179-0.106 0.192-0.209l0.48-3.852-3.511-3.511-3.85 0.482zM14.276 5.93c-0.362-0.362-0.947-0.362-1.309 0s-0.363 0.947-0.002 1.309l3.851 3.85c0.362 0.361 0.949 0.36 1.311-0.002 0.173-0.174 0.271-0.409 0.271-0.655s-0.098-0.481-0.271-0.655l-3.85-3.849z"></path>
</svg>
